# xmcd CD database file generated by OrangeCD 5.2
#
# Track frame offsets:
#	183
#	15325
#	30588
#	47435
#	61278
#	81845
#	97480
#	113355
#	126733
#	141235
#
# Disc length: 2247 seconds
#
# Revision: 4
# Processed by: cddbd v1.5.1PL0 Copyright (c) Steve Scherf et al.
# Submitted via: OrangeCD 5.2
#
DISCID=8208c50a
DTITLE=Hank Williams Jr. - Pure Hank
DYEAR=1991
DGENRE=Country
TTITLE0=If It Will It Will
TTITLE1=Angels Are Hard To Find
TTITLE2=Kiss Mother Nature Goodbye
TTITLE3=(I've Got My) Future On Ice
TTITLE4=Be Careful Who You Love (Arthur's Song)
TTITLE5=Memphis Belle
TTITLE6=Honky Tonk Train
TTITLE7=Hollywood Honeys
TTITLE8=Just To Satisfy You
TTITLE9=Simple Man
EXTD=
EXTT0=
EXTT1=
EXTT2=
EXTT3=
EXTT4=(Arthur's Song)
EXTT5=
EXTT6=
EXTT7=
EXTT8=
EXTT9=
PLAYORDER=
